<svg width="67" height="127" viewBox="0 0 67 127" fill="none" xmlns="http://www.w3.org/2000/svg">
<path d="M7 95.5C7 102.528 9.79195 109.269 14.7617 114.238C19.7314 119.208 26.4718 122 33.5 122C40.5282 122 47.2686 119.208 52.2383 114.238C57.208 109.269 60 102.528 60 95.5L33.5 95.5L7 95.5Z" fill="black"/>
<path d="M60 31.5C60 28.02 59.3146 24.574 57.9828 21.3589C56.6511 18.1438 54.6991 15.2224 52.2383 12.7617C49.7776 10.3009 46.8562 8.34894 43.6411 7.01719C40.426 5.68544 36.98 5 33.5 5C30.02 5 26.574 5.68544 23.3589 7.01719C20.1438 8.34894 17.2224 10.3009 14.7617 12.7617C12.3009 15.2224 10.3489 18.1438 9.01719 21.3589C7.68544 24.574 7 28.02 7 31.5L24.0132 31.5C24.0132 30.2542 24.2586 29.0205 24.7353 27.8695C25.2121 26.7186 25.9109 25.6727 26.7918 24.7918C27.6727 23.9109 28.7186 23.2121 29.8695 22.7353C31.0205 22.2586 32.2542 22.0132 33.5 22.0132C34.7458 22.0132 35.9795 22.2586 37.1305 22.7353C38.2814 23.2121 39.3273 23.9109 40.2082 24.7918C41.0891 25.6727 41.7879 26.7186 42.2647 27.8695C42.7414 29.0205 42.9868 30.2542 42.9868 31.5H60Z" fill="black"/>
<rect x="7" y="34" width="8" height="57" fill="black"/>
<rect x="34" y="34" width="8" height="57" fill="black"/>
<rect x="34" y="82" width="26" height="9" fill="black"/>
<rect x="34" y="58" width="26" height="8" fill="black"/>
<rect x="34" y="34" width="26" height="9" fill="black"/>
<rect x="15" y="82" width="23" height="9" fill="black"/>
<path d="M33.5 34L21.8087 22L45.1913 22L33.5 34Z" fill="black"/>
</svg>
