<svg width="23" height="23" viewBox="0 0 23 23" fill="none" xmlns="http://www.w3.org/2000/svg">
<path fill-rule="evenodd" clip-rule="evenodd" d="M11.5 23C17.8513 23 23 17.8513 23 11.5C23 5.14873 17.8513 0 11.5 0C5.14873 0 0 5.14873 0 11.5C0 17.8513 5.14873 23 11.5 23ZM18.9246 4.07538C16.9555 2.10625 14.2848 1 11.5 1V7.4922C12.5629 7.4922 13.5823 7.91444 14.3339 8.66605C15.0856 9.41766 15.5078 10.4371 15.5078 11.5C15.5078 12.5629 15.0856 13.5823 14.3339 14.3339C13.5823 15.0856 12.5629 15.5078 11.5 15.5078L11.5 22C14.2848 22 16.9555 20.8938 18.9246 18.9246C20.8938 16.9555 22 14.2848 22 11.5C22 8.71523 20.8938 6.04451 18.9246 4.07538Z" fill="white"/>
</svg>
